<?xml version="1.0" encoding="UTF-8" standalone="no"?>
<svg
   width="114.248"
   height="102.221"
   viewBox="0 0 114.248 102.221"
   version="1.1"
   id="svg10"
   sodipodi:docname="enno_icon_set_switch_network.svg"
   inkscape:version="1.1-alpha (17bc9184, 2021-03-28)"
   xmlns:inkscape="http://www.inkscape.org/namespaces/inkscape"
   xmlns:sodipodi="http://sodipodi.sourceforge.net/DTD/sodipodi-0.dtd"
   xmlns="http://www.w3.org/2000/svg"
   xmlns:svg="http://www.w3.org/2000/svg">
  <defs
     id="defs14" />
  <sodipodi:namedview
     id="namedview12"
     pagecolor="#ffffff"
     bordercolor="#666666"
     borderopacity="1.0"
     objecttolerance="10.0"
     gridtolerance="10.0"
     guidetolerance="10.0"
     inkscape:pageshadow="2"
     inkscape:pageopacity="0.0"
     inkscape:pagecheckerboard="0"
     showgrid="false"
     inkscape:zoom="7.3663924"
     inkscape:cx="31.90164"
     inkscape:cy="52.73952"
     inkscape:window-width="1312"
     inkscape:window-height="1003"
     inkscape:window-x="44"
     inkscape:window-y="25"
     inkscape:window-maximized="0"
     inkscape:current-layer="svg10" />
  <path
     id="enno_icon_set_switch_network"
     d="M95.664,61.566a42.984,42.984,0,0,0-5.321-4.052,22.432,22.432,0,0,0-5.516-2.646,16.2,16.2,0,0,0-4.536-.3L107,81.277,96.207,92.008V79.689a3,3,0,0,0-2.528-2.963,56.752,56.752,0,0,1-39.99-27.147c-.026-.045-.053-.088-.093-.149C64.168,36.256,80.533,28.543,93.861,25.563a3,3,0,0,0,2.346-2.927V10.243l10.8,10.8-15.92,15.92L95.328,41.2l18.041-18.041a3,3,0,0,0,0-4.242L95.328.88A3,3,0,0,0,90.207,3v17.27c-13.466,3.453-29.274,11.271-40.194,24.09C32.478,20.987,14.949,18.144,3,18.144a3,3,0,0,0-3,3V81.18a3,3,0,0,0,3,3c11.939,0,31.923,0,44.78-25.714q.956-1.911,2.062-3.71A62.7,62.7,0,0,0,90.207,82.2V99.221a3,3,0,0,0,5.115,2.128L113.363,83.41a3,3,0,0,0,.006-4.249L104.9,70.695c-3.042-3.042-5.993-6.272-9.239-9.129M42.413,55.783C32.129,76.351,17.536,78.031,6,78.168V24.215c11.323.551,25.49,4.726,40.218,25.106a55.166,55.166,0,0,0-3.805,6.462"
     transform="translate(0 0)"
     style="fill:#f2f2f2" />
</svg>
