<?xml version="1.0" encoding="UTF-8" standalone="no"?>
<svg
   width="119.614"
   height="114.148"
   viewBox="0 0 119.614 114.148"
   version="1.1"
   id="svg10"
   sodipodi:docname="enno_icon_set_wallet_account.svg"
   inkscape:version="1.1-alpha (17bc9184, 2021-03-28)"
   xmlns:inkscape="http://www.inkscape.org/namespaces/inkscape"
   xmlns:sodipodi="http://sodipodi.sourceforge.net/DTD/sodipodi-0.dtd"
   xmlns="http://www.w3.org/2000/svg"
   xmlns:svg="http://www.w3.org/2000/svg">
  <defs
     id="defs14" />
  <sodipodi:namedview
     id="namedview12"
     pagecolor="#ffffff"
     bordercolor="#666666"
     borderopacity="1.0"
     objecttolerance="10.0"
     gridtolerance="10.0"
     guidetolerance="10.0"
     inkscape:pageshadow="2"
     inkscape:pageopacity="0.0"
     inkscape:pagecheckerboard="0"
     showgrid="false"
     inkscape:zoom="6.5966989"
     inkscape:cx="31.682513"
     inkscape:cy="58.893093"
     inkscape:window-width="1312"
     inkscape:window-height="1003"
     inkscape:window-x="44"
     inkscape:window-y="25"
     inkscape:window-maximized="0"
     inkscape:current-layer="svg10" />
  <path
     id="enno_icon_set_wallet_account"
     d="M119.612,60.94V41.751a15.739,15.739,0,0,0-15.739-15.738H47.215q0,3.157,0,6.316l53.935-.071a15.923,15.923,0,0,1,6.414.876c4.675,2.033,6.269,7.927,6.1,13.022s-1.476,10.279-.218,15.219c-4.605-3.9-11.175-4.162-17.208-4.234-6.092-.073-12.871.114-17.239,4.36-5.018,4.876-4.177,14.24,1.448,18.4,4.3,3.178,10.055,3.3,15.4,3.3,6.158-.006,12.9-.217,17.558-4.242-.843,4.676.113,9.469.121,14.22s-1.267,10-5.214,12.642c-2.986,2-6.819,2.068-10.413,2.066l-76.622-.043c-3.908,0-8.182-.134-11.143-2.684C6.56,102.07,6.286,96.714,6.286,91.986q0-24.343-.007-48.688c0-3.57.084-7.412,2.2-10.289,2.093-2.846,5.683-4.08,9.047-5.156L80.546,7.691c4.06-1.3,9.25-2.3,11.961.99,1.794,2.178,1.785,5.255,2.41,7.877a6.975,6.975,0,0,0,1.65,3.419c1.262,1.252,3.194,2.048,4.707,2.957l.116.071a39.593,39.593,0,0,0-1.7-11.107,33.024,33.024,0,0,0-2.177-5.776,10.27,10.27,0,0,0-3.208-3.964A10.812,10.812,0,0,0,91.079.682a16.193,16.193,0,0,0-10.217.3L10.948,23.359A15.74,15.74,0,0,0,0,38.35V98.409a15.74,15.74,0,0,0,15.739,15.739h88.135a15.74,15.74,0,0,0,15.739-15.739V79.729a32.954,32.954,0,0,0-.671-6.945,12.719,12.719,0,0,1,.012-5.156,31.6,31.6,0,0,0,.659-6.688M103.873,76.567c-3.567,0-7.5-.017-11.19-.017h-4.3a6.59,6.59,0,0,1-6.546-6.517v-.006a6.244,6.244,0,0,1,6.243-6.244h15.789c2.492,0,5.827,1.739,7.794,6.393-1.967,4.565-5.3,6.395-7.792,6.391"
     transform="translate(0.001 0)"
     fill-rule="evenodd"
     style="fill:#f2f2f2" />
</svg>
